<?xml version="1.0" encoding="UTF-8"?>
<svg xmlns="http://www.w3.org/2000/svg" xmlns:xlink="http://www.w3.org/1999/xlink" width="144pt" height="144pt" viewBox="0 0 144 144" version="1.1">
<g id="surface1">
<path style=" stroke:none;fill-rule:nonzero;fill:rgb(51.764706%,30.980392%,24.313725%);fill-opacity:1;" d="M 136.574219 100.570312 C 135.773438 105.375 133.144531 106.871094 131.640625 107.328125 L 20.910156 141.460938 C 19.378906 141.933594 17.753906 141.074219 17.277344 139.542969 L 10.4375 117.347656 C 10.210938 116.613281 10.285156 115.816406 10.644531 115.136719 C 11.003906 114.457031 11.621094 113.949219 12.355469 113.722656 L 123.09375 79.589844 C 123.65625 79.414062 124.246094 79.324219 124.839844 79.328125 C 129.199219 79.328125 133.554688 83.972656 135.691406 90.894531 C 136.734375 94.28125 137.046875 97.722656 136.574219 100.570312 Z M 136.574219 100.570312 "/>
<path style=" stroke:none;fill-rule:nonzero;fill:rgb(72.54902%,54.901961%,41.568627%);fill-opacity:1;" d="M 13.210938 116.496094 C 16.273438 115.550781 20.292969 119.75 22.183594 125.882812 C 24.070312 132.011719 23.117188 137.738281 20.054688 138.683594 C 16.992188 139.628906 12.972656 135.429688 11.082031 129.300781 C 9.195312 123.171875 10.148438 117.441406 13.210938 116.496094 Z M 13.210938 116.496094 "/>
<path style=" stroke:none;fill-rule:nonzero;fill:rgb(36.862745%,21.960784%,17.254902%);fill-opacity:1;" d="M 24.957031 125.023438 C 26 128.410156 26.3125 131.851562 25.835938 134.703125 C 25.246094 138.261719 23.496094 140.664062 20.910156 141.460938 C 20.34375 141.636719 19.753906 141.726562 19.160156 141.722656 C 14.804688 141.722656 10.441406 137.078125 8.308594 130.15625 C 7.265625 126.769531 6.953125 123.332031 7.429688 120.480469 C 8.019531 116.917969 9.769531 114.515625 12.355469 113.722656 C 12.921875 113.546875 13.511719 113.457031 14.105469 113.457031 C 18.460938 113.457031 22.824219 118.105469 24.957031 125.023438 Z M 19.199219 135.914062 C 19.292969 135.882812 19.835938 135.390625 20.109375 133.753906 C 20.4375 131.800781 20.179688 129.242188 19.40625 126.734375 C 17.898438 121.832031 15.152344 119.261719 14.105469 119.261719 C 14.09375 119.261719 14.078125 119.265625 14.066406 119.269531 C 13.972656 119.296875 13.429688 119.792969 13.15625 121.433594 C 12.828125 123.382812 13.089844 125.945312 13.859375 128.445312 C 15.367188 133.347656 18.113281 135.917969 19.160156 135.917969 C 19.171875 135.917969 19.1875 135.917969 19.199219 135.914062 Z M 109.78125 104.953125 C 108.292969 105.414062 107.949219 106.148438 107.820312 106.800781 C 107.660156 107.558594 107.8125 108.363281 107.878906 108.613281 L 107.871094 108.582031 L 102.320312 110.296875 C 102.210938 109.925781 101.253906 106.589844 102.898438 103.464844 C 103.609375 102.121094 105.082031 100.328125 108.070312 99.410156 C 112.730469 97.976562 130.363281 92.34375 135.617188 90.667969 L 135.691406 90.894531 C 136.261719 92.75 136.617188 94.621094 136.738281 96.40625 C 130.8125 98.300781 114.289062 103.566406 109.78125 104.957031 Z M 109.78125 104.953125 "/>
<path style=" stroke:none;fill-rule:nonzero;fill:rgb(36.862745%,21.960784%,17.254902%);fill-opacity:1;" d="M 61.101562 104.761719 L 55.554688 106.476562 L 55.546875 106.445312 C 55.617188 106.691406 55.761719 107.5 55.609375 108.253906 C 55.472656 108.90625 55.132812 109.640625 53.648438 110.097656 C 48.101562 111.804688 20.359375 120.367188 20.359375 120.367188 L 22.074219 125.914062 L 55.351562 115.644531 C 58.339844 114.726562 59.8125 112.929688 60.523438 111.589844 C 62.171875 108.464844 61.21875 105.132812 61.101562 104.761719 Z M 61.101562 104.761719 "/>
<path style=" stroke:none;fill-rule:nonzero;fill:rgb(57.254902%,34.901961%,28.235294%);fill-opacity:1;" d="M 133.566406 117.347656 L 126.722656 139.542969 C 126.496094 140.28125 125.984375 140.894531 125.304688 141.253906 C 124.625 141.613281 123.828125 141.6875 123.09375 141.460938 L 12.355469 107.328125 C 10.855469 106.871094 8.222656 105.375 7.429688 100.570312 C 6.953125 97.722656 7.265625 94.28125 8.308594 90.894531 C 10.441406 83.976562 14.804688 79.328125 19.160156 79.328125 C 19.757812 79.328125 20.34375 79.414062 20.910156 79.589844 L 131.644531 113.722656 C 133.175781 114.195312 134.03125 115.816406 133.566406 117.347656 Z M 133.566406 117.347656 "/>
<path style=" stroke:none;fill-rule:nonzero;fill:rgb(36.862745%,21.960784%,17.254902%);fill-opacity:1;" d="M 40.53125 103.875 C 41.117188 105.363281 41.398438 107.207031 41.378906 109.335938 C 41.339844 112.679688 40.558594 115.742188 40.527344 115.875 C 40.515625 115.917969 40.496094 115.960938 40.484375 116.003906 L 34.9375 114.292969 C 35.0625 113.738281 35.550781 111.539062 35.574219 109.273438 C 35.582031 108.359375 35.515625 105.355469 34.222656 104.953125 C 29.195312 103.40625 10.511719 97.582031 7.25 96.5625 C 7.378906 94.636719 7.734375 92.734375 8.308594 90.894531 C 8.316406 90.867188 8.324219 90.851562 8.332031 90.828125 C 8.386719 90.84375 8.4375 90.851562 8.492188 90.867188 C 8.707031 90.9375 30.453125 97.71875 35.929688 99.410156 C 37.414062 99.863281 39.414062 101.011719 40.53125 103.875 Z M 90.355469 110.101562 C 101.449219 113.519531 112.542969 116.945312 123.636719 120.367188 L 121.925781 125.914062 L 88.644531 115.644531 C 86.140625 114.878906 83.140625 112.527344 83.046875 105.746094 C 83.003906 102.386719 83.703125 99.304688 83.734375 99.175781 C 83.75 99.109375 83.765625 99.039062 83.789062 98.972656 L 89.34375 100.683594 C 88.574219 104.242188 88.582031 109.550781 90.355469 110.101562 Z M 90.355469 110.101562 "/>
<path style=" stroke:none;fill-rule:nonzero;fill:rgb(72.54902%,54.901961%,41.568627%);fill-opacity:1;" d="M 130.792969 116.496094 C 127.726562 115.550781 123.710938 119.757812 121.820312 125.882812 C 119.929688 132.011719 120.882812 137.738281 123.949219 138.683594 C 127.011719 139.628906 131.027344 135.429688 132.917969 129.300781 C 134.808594 123.171875 133.855469 117.441406 130.792969 116.496094 Z M 130.792969 116.496094 "/>
<path style=" stroke:none;fill-rule:nonzero;fill:rgb(36.862745%,21.960784%,17.254902%);fill-opacity:1;" d="M 131.644531 113.722656 C 134.234375 114.519531 135.984375 116.917969 136.574219 120.480469 C 137.046875 123.332031 136.734375 126.769531 135.691406 130.15625 C 133.554688 137.074219 129.199219 141.722656 124.839844 141.722656 C 124.25 141.726562 123.660156 141.636719 123.09375 141.460938 C 120.503906 140.664062 118.757812 138.261719 118.164062 134.703125 C 117.6875 131.851562 118.003906 128.410156 119.046875 125.023438 C 121.175781 118.105469 125.539062 113.457031 129.898438 113.457031 C 130.492188 113.457031 131.082031 113.546875 131.644531 113.722656 Z M 130.144531 128.445312 C 130.914062 125.945312 131.175781 123.382812 130.847656 121.433594 C 130.574219 119.792969 130.03125 119.296875 129.933594 119.269531 C 129.921875 119.265625 129.910156 119.261719 129.898438 119.261719 C 128.851562 119.261719 126.105469 121.832031 124.59375 126.734375 C 123.824219 129.242188 123.5625 131.796875 123.894531 133.753906 C 124.164062 135.390625 124.710938 135.882812 124.804688 135.914062 C 124.8125 135.917969 124.824219 135.917969 124.839844 135.917969 C 125.886719 135.917969 128.632812 133.347656 130.144531 128.445312 Z M 130.144531 128.445312 "/>
<path style=" stroke:none;fill-rule:nonzero;fill:rgb(100%,49.019608%,10.980392%);fill-opacity:1;" d="M 109.769531 66.777344 C 108.226562 59.605469 104.191406 52.503906 97.773438 45.671875 C 90.804688 38.261719 86.882812 29.59375 86.109375 19.914062 C 85.527344 12.613281 87.050781 7.429688 87.066406 7.386719 L 88.632812 2.277344 L 83.492188 3.746094 C 69.449219 7.757812 58.78125 14.261719 51.792969 23.078125 C 46.339844 29.949219 43.054688 38.300781 41.984375 47.980469 C 41.953125 47.941406 41.925781 47.902344 41.902344 47.867188 C 41.246094 46.921875 40.566406 45.945312 39.871094 45.082031 L 36.863281 41.332031 L 34.949219 45.746094 C 31.390625 53.933594 29.839844 61.941406 30.34375 69.554688 C 30.800781 76.453125 32.914062 82.894531 36.632812 88.695312 C 40.578125 94.847656 46.234375 100.050781 52.984375 103.753906 C 59.285156 107.210938 66.359375 109.183594 72.886719 109.316406 C 73.203125 109.320312 73.519531 109.328125 73.839844 109.328125 C 85.292969 109.328125 101.570312 100.273438 107.894531 85.648438 C 110.519531 79.574219 111.15625 73.222656 109.769531 66.777344 Z M 109.769531 66.777344 "/>
<path style=" stroke:none;fill-rule:nonzero;fill:rgb(100%,76.862745%,24.313725%);fill-opacity:1;" d="M 86.429688 72.609375 C 78.34375 63.023438 74.816406 53.503906 74.78125 53.410156 L 73.285156 49.289062 L 70.074219 52.273438 C 61.453125 60.292969 55.667969 67.941406 52.894531 75.007812 C 50.4375 81.242188 50.257812 87.109375 52.34375 92.433594 C 54.300781 97.414062 58.320312 101.894531 63.972656 105.378906 C 65.75 106.472656 67.609375 107.433594 69.53125 108.25 C 72.070312 109.316406 72.644531 109.316406 72.949219 109.316406 L 73.480469 109.320312 L 73.96875 109.132812 C 79.300781 107.15625 88.699219 100.429688 91.226562 90.828125 C 92.867188 84.578125 91.210938 78.28125 86.429688 72.609375 Z M 86.429688 72.609375 "/>
</g>
</svg>
